<svg width="13" height="13" viewBox="0 0 13 13" fill="none" xmlns="http://www.w3.org/2000/svg">
<path d="M1.84568 9.12003e-07L12.2778 0C12.3637 -7.51328e-09 12.4462 0.0150111 12.5226 0.0425544C12.5335 0.0464892 12.5443 0.0506797 12.555 0.0551188C12.6383 0.0896865 12.7164 0.140514 12.7845 0.207601C12.7872 0.210213 12.7898 0.212845 12.7924 0.215498C12.9208 0.345869 13 0.524795 13 0.722222V11.1543C13 11.5532 12.6767 11.8765 12.2778 11.8765C11.8789 11.8765 11.5556 11.5532 11.5556 11.1543V2.46582L1.23291 12.7885C0.950865 13.0705 0.493579 13.0705 0.211534 12.7885C-0.0705113 12.5064 -0.0705113 12.0491 0.211534 11.7671L10.5342 1.44444L1.84568 1.44445C1.44681 1.44445 1.12346 1.1211 1.12346 0.722223C1.12346 0.323351 1.44681 9.12003e-07 1.84568 9.12003e-07Z" fill="#232323"/>
</svg>
