<svg width="21" height="21" viewBox="0 0 21 21" fill="none" xmlns="http://www.w3.org/2000/svg">
<path fill-rule="evenodd" clip-rule="evenodd" d="M12.6651 14.4328C11.3491 15.3901 9.72919 15.9548 7.97738 15.9548C3.57159 15.9548 0 12.3832 0 7.97738C0 3.57159 3.57159 0 7.97738 0C12.3832 0 15.9548 3.57159 15.9548 7.97738C15.9548 9.72919 15.3901 11.3491 14.4328 12.6651L19.8839 18.1161C20.372 18.6043 20.372 19.3957 19.8839 19.8839C19.3957 20.372 18.6043 20.372 18.1161 19.8839L12.6651 14.4328ZM13.5785 7.97739C13.5785 11.0708 11.0708 13.5785 7.97737 13.5785C4.88395 13.5785 2.37623 11.0708 2.37623 7.97739C2.37623 4.88397 4.88395 2.37625 7.97737 2.37625C11.0708 2.37625 13.5785 4.88397 13.5785 7.97739Z" fill="url(#paint0_linear_0_6)"/>
<defs>
<linearGradient id="paint0_linear_0_6" x1="10.125" y1="0" x2="10.125" y2="20.25" gradientUnits="userSpaceOnUse">
<stop stop-color="#BC9F5F"/>
<stop offset="1" stop-color="#AB7A10"/>
</linearGradient>
</defs>
</svg>
